<mxfile host="65bd71144e">
    <diagram id="wfoCzQKfmRPjLo03FRlK" name="Page-1">
        <mxGraphModel dx="1002" dy="581" grid="1" gridSize="10" guides="1" tooltips="1" connect="1" arrows="1" fold="1" page="1" pageScale="1" pageWidth="850" pageHeight="1100" math="0" shadow="0">
            <root>
                <mxCell id="0"/>
                <mxCell id="1" parent="0"/>
                <mxCell id="3" value="" style="swimlane;startSize=0;shadow=0;fillColor=#60a917;fontColor=#ffffff;strokeColor=#2D7600;swimlaneFillColor=#39c91d;" vertex="1" parent="1">
                    <mxGeometry x="40" y="80" width="200" height="330" as="geometry"/>
                </mxCell>
                <mxCell id="4" value="&lt;font size=&quot;3&quot;&gt;Return Directors&lt;/font&gt;" style="text;html=1;align=center;verticalAlign=middle;resizable=0;points=[];autosize=1;strokeColor=none;fillColor=none;" vertex="1" parent="3">
                    <mxGeometry x="20" y="15" width="140" height="30" as="geometry"/>
                </mxCell>
                <mxCell id="5" value="Driver" style="rounded=0;whiteSpace=wrap;html=1;shadow=0;fontSize=14;" vertex="1" parent="3">
                    <mxGeometry x="40" y="80" width="120" height="60" as="geometry"/>
                </mxCell>
                <mxCell id="6" value="Depaginator" style="rounded=0;whiteSpace=wrap;html=1;shadow=0;fontSize=14;" vertex="1" parent="3">
                    <mxGeometry x="40" y="190" width="120" height="60" as="geometry"/>
                </mxCell>
                <mxCell id="7" value="&amp;nbsp;" style="rounded=0;whiteSpace=wrap;html=1;shadow=0;fontSize=14;labelBackgroundColor=default;align=left;" vertex="1" parent="1">
                    <mxGeometry x="280" y="90" width="480" height="130" as="geometry"/>
                </mxCell>
                <mxCell id="20" style="edgeStyle=none;html=1;fontSize=14;fontColor=#FFFFFF;exitX=0;exitY=0.5;exitDx=0;exitDy=0;entryX=1;entryY=0.5;entryDx=0;entryDy=0;" edge="1" parent="1" source="7" target="5">
                    <mxGeometry relative="1" as="geometry">
                        <mxPoint x="370" y="460" as="targetPoint"/>
                    </mxGeometry>
                </mxCell>
                <mxCell id="21" value="" style="edgeStyle=none;html=1;fontSize=14;fontColor=#FFFFFF;exitX=0;exitY=0.5;exitDx=0;exitDy=0;entryX=1;entryY=0.5;entryDx=0;entryDy=0;" edge="1" parent="1" source="8" target="6">
                    <mxGeometry relative="1" as="geometry"/>
                </mxCell>
                <mxCell id="8" value="" style="rounded=0;whiteSpace=wrap;html=1;shadow=0;fontSize=14;" vertex="1" parent="1">
                    <mxGeometry x="280" y="270" width="480" height="130" as="geometry"/>
                </mxCell>
                <mxCell id="10" value="HTTP Reader" style="rounded=0;html=1;shadow=0;fontSize=14;labelBackgroundColor=none;whiteSpace=wrap;labelBorderColor=none;fontColor=#ffffff;fillColor=#1ba1e2;strokeColor=#006EAF;" vertex="1" parent="1">
                    <mxGeometry x="310" y="140" width="120" height="60" as="geometry"/>
                </mxCell>
                <mxCell id="11" value="Cache Reader" style="rounded=0;whiteSpace=wrap;html=1;shadow=0;fontSize=14;fillColor=#d80073;fontColor=#ffffff;strokeColor=#A50040;" vertex="1" parent="1">
                    <mxGeometry x="450" y="140" width="120" height="60" as="geometry"/>
                </mxCell>
                <mxCell id="12" value="&lt;font size=&quot;3&quot;&gt;. . .&lt;/font&gt;" style="rounded=0;whiteSpace=wrap;html=1;shadow=0;fontSize=14;" vertex="1" parent="1">
                    <mxGeometry x="600" y="140" width="120" height="60" as="geometry"/>
                </mxCell>
                <mxCell id="16" value="&lt;font color=&quot;#ffffff&quot; style=&quot;font-size: 14px;&quot;&gt;De-paginate&lt;br&gt;result&lt;/font&gt;" style="rounded=0;whiteSpace=wrap;html=1;shadow=0;fontSize=14;fillColor=#e3c800;fontColor=#000000;strokeColor=#B09500;" vertex="1" parent="1">
                    <mxGeometry x="310" y="320" width="120" height="60" as="geometry"/>
                </mxCell>
                <mxCell id="17" value="Noop" style="rounded=0;whiteSpace=wrap;html=1;shadow=0;fontSize=14;" vertex="1" parent="1">
                    <mxGeometry x="445" y="320" width="120" height="60" as="geometry"/>
                </mxCell>
                <mxCell id="18" value=". . ." style="rounded=0;whiteSpace=wrap;html=1;shadow=0;fontSize=14;" vertex="1" parent="1">
                    <mxGeometry x="595" y="320" width="120" height="60" as="geometry"/>
                </mxCell>
            </root>
        </mxGraphModel>
    </diagram>
</mxfile>